<?xml version="1.0" encoding="UTF-8" standalone="no" ?>
<!DOCTYPE svg PUBLIC "-//W3C//DTD SVG 1.1//EN" "http://www.w3.org/Graphics/SVG/1.1/DTD/svg11.dtd">
<svg xmlns="http://www.w3.org/2000/svg" xmlns:xlink="http://www.w3.org/1999/xlink" version="1.1" width="1080" height="1080" viewBox="0 0 1080 1080" xml:space="preserve">
<desc>Created with Fabric.js 5.2.4</desc>
<defs>
</defs>
<rect x="0" y="0" width="100%" height="100%" fill="transparent"></rect>
<g transform="matrix(1 0 0 1 540 540)" id="f40ac77d-6e82-4360-9a18-ac0eebf6d0b5"  >
<rect style="stroke: none; stroke-width: 1; stroke-dasharray: none; stroke-linecap: butt; stroke-dashoffset: 0; stroke-linejoin: miter; stroke-miterlimit: 4; fill: rgb(255,255,255); fill-rule: nonzero; opacity: 1; visibility: hidden;" vector-effect="non-scaling-stroke"  x="-540" y="-540" rx="0" ry="0" width="1080" height="1080" />
</g>
<g transform="matrix(1 0 0 1 540 540)" id="8a89ad52-ed90-4aa4-a737-bf2d327b12ce"  >
</g>
<g transform="matrix(5.63 0 0 5.63 540.48 541.02)"  >
<g style=""   >
		<g transform="matrix(1 0 0 1 6.8 182.6)"  >
<path style="stroke: none; stroke-width: 1; stroke-dasharray: none; stroke-linecap: butt; stroke-dashoffset: 0; stroke-linejoin: miter; stroke-miterlimit: 4; fill: rgb(0,0,0); fill-rule: nonzero; opacity: 1;" vector-effect="non-scaling-stroke"  transform=" translate(-102.81, -385.1)" d="M 49.646 368.133 L 188.562 368.133 L 188.562 370.065 L 50.4436 370.065 L 18.4175 402.073 L 17.0528 400.709 L 49.646 368.133 Z" stroke-linecap="round" />
</g>
		<g transform="matrix(1 0 0 1 92.39 166.59)"  >
<path style="stroke: none; stroke-width: 1; stroke-dasharray: none; stroke-linecap: butt; stroke-dashoffset: 0; stroke-linejoin: miter; stroke-miterlimit: 4; fill: rgb(0,0,0); fill-rule: nonzero; opacity: 1;" vector-effect="non-scaling-stroke"  transform=" translate(-188.38, -369.09)" d="M 188.384 365.474 C 190.387 365.474 192 367.104 192 369.089 C 192 371.074 190.369 372.705 188.384 372.705 C 186.382 372.705 184.769 371.074 184.769 369.089 C 184.769 367.104 186.382 365.474 188.384 365.474 Z" stroke-linecap="round" />
</g>
		<g transform="matrix(1 0 0 1 -78.15 198.76)"  >
<path style="stroke: none; stroke-width: 1; stroke-dasharray: none; stroke-linecap: butt; stroke-dashoffset: 0; stroke-linejoin: miter; stroke-miterlimit: 4; fill: rgb(0,0,0); fill-rule: nonzero; opacity: 1;" vector-effect="non-scaling-stroke"  transform=" translate(-17.86, -401.27)" d="M 15.2981 398.705 C 13.8803 400.123 13.8803 402.41 15.2981 403.827 C 16.716 405.245 19.0023 405.245 20.4202 403.827 C 21.838 402.41 21.838 400.123 20.4202 398.705 C 19.02 397.288 16.716 397.288 15.2981 398.705 Z" stroke-linecap="round" />
</g>
		<g transform="matrix(1 0 0 1 -155.45 169.61)"  >
<path style="stroke: none; stroke-width: 1; stroke-dasharray: none; stroke-linecap: butt; stroke-dashoffset: 0; stroke-linejoin: miter; stroke-miterlimit: 4; fill: rgb(0,0,0); fill-rule: nonzero; opacity: 1;" vector-effect="non-scaling-stroke"  transform=" translate(59.45, -372.11)" d="M 13.4018 350.001 L 69.2481 350.001 L 69.2481 351.933 L 14.1993 351.933 L -28.0886 394.221 L -188.148 394.221 L -188.148 392.289 L -28.8862 392.289 L 13.4018 350.001 Z" stroke-linecap="round" />
</g>
		<g transform="matrix(1 0 0 1 -26.93 148.46)"  >
<path style="stroke: none; stroke-width: 1; stroke-dasharray: none; stroke-linecap: butt; stroke-dashoffset: 0; stroke-linejoin: miter; stroke-miterlimit: 4; fill: rgb(0,0,0); fill-rule: nonzero; opacity: 1;" vector-effect="non-scaling-stroke"  transform=" translate(-69.07, -350.96)" d="M 69.0707 347.343 C 71.0735 347.343 72.6863 348.974 72.6863 350.959 C 72.6863 352.961 71.0557 354.574 69.0707 354.574 C 67.068 354.574 65.4551 352.944 65.4551 350.959 C 65.4374 348.974 67.068 347.343 69.0707 347.343 Z" stroke-linecap="round" />
</g>
		<g transform="matrix(1 0 0 1 -0.38 -151.84)"  >
<path style="stroke: none; stroke-width: 1; stroke-dasharray: none; stroke-linecap: butt; stroke-dashoffset: 0; stroke-linejoin: miter; stroke-miterlimit: 4; fill: rgb(0,0,0); fill-rule: nonzero; opacity: 1;" vector-effect="non-scaling-stroke"  transform=" translate(-95.63, -50.66)" d="M 16.1487 28.7831 L 57.9936 70.6103 L 176.474 70.6103 L 176.474 72.5421 L 57.196 72.5421 L 14.784 30.1478 L 16.1487 28.7831 Z" stroke-linecap="round" />
</g>
		<g transform="matrix(1 0 0 1 80.3 -130.93)"  >
<path style="stroke: none; stroke-width: 1; stroke-dasharray: none; stroke-linecap: butt; stroke-dashoffset: 0; stroke-linejoin: miter; stroke-miterlimit: 4; fill: rgb(0,0,0); fill-rule: nonzero; opacity: 1;" vector-effect="non-scaling-stroke"  transform=" translate(-176.3, -71.57)" d="M 176.297 67.9526 C 178.3 67.9526 179.913 69.5831 179.913 71.5681 C 179.913 73.5709 178.282 75.1837 176.297 75.1837 C 174.294 75.1837 172.682 73.5532 172.682 71.5681 C 172.664 69.5831 174.294 67.9526 176.297 67.9526 Z" stroke-linecap="round" />
</g>
		<g transform="matrix(1 0 0 1 -80.4 -172.91)"  >
<path style="stroke: none; stroke-width: 1; stroke-dasharray: none; stroke-linecap: butt; stroke-dashoffset: 0; stroke-linejoin: miter; stroke-miterlimit: 4; fill: rgb(0,0,0); fill-rule: nonzero; opacity: 1;" vector-effect="non-scaling-stroke"  transform=" translate(-15.61, -29.59)" d="M 18.1692 27.0289 C 16.7513 25.611 14.465 25.611 13.0472 27.0289 C 11.6293 28.4468 11.6293 30.7331 13.0472 32.151 C 14.465 33.5688 16.7513 33.5688 18.1692 32.151 C 19.5871 30.7331 19.5871 28.4468 18.1692 27.0289 Z" stroke-linecap="round" />
</g>
		<g transform="matrix(1 0 0 1 -173.48 -145.86)"  >
<path style="stroke: none; stroke-width: 1; stroke-dasharray: none; stroke-linecap: butt; stroke-dashoffset: 0; stroke-linejoin: miter; stroke-miterlimit: 4; fill: rgb(0,0,0); fill-rule: nonzero; opacity: 1;" vector-effect="non-scaling-stroke"  transform=" translate(77.48, -56.64)" d="M -185.135 43.4408 L 5.12509 43.4408 L 30.1682 68.4662 L 28.8035 69.8309 L 4.32754 45.355 L -185.135 45.3549 L -185.135 43.4408 Z" stroke-linecap="round" />
</g>
		<g transform="matrix(1 0 0 1 -66.64 -133.48)"  >
<path style="stroke: none; stroke-width: 1; stroke-dasharray: none; stroke-linecap: butt; stroke-dashoffset: 0; stroke-linejoin: miter; stroke-miterlimit: 4; fill: rgb(0,0,0); fill-rule: nonzero; opacity: 1;" vector-effect="non-scaling-stroke"  transform=" translate(-29.36, -69.02)" d="M 31.9226 66.463 C 33.3405 67.8809 33.3405 70.1672 31.9226 71.585 C 30.5048 73.0029 28.2184 73.0029 26.8006 71.585 C 25.3827 70.1672 25.3827 67.8809 26.8006 66.463 C 28.2007 65.0451 30.5048 65.0451 31.9226 66.463 Z" stroke-linecap="round" />
</g>
		<g transform="matrix(1 0 0 1 -107.59 -57.91)"  >
<path style="stroke: none; stroke-width: 1; stroke-dasharray: none; stroke-linecap: butt; stroke-dashoffset: 0; stroke-linejoin: miter; stroke-miterlimit: 4; fill: rgb(0,0,0); fill-rule: nonzero; opacity: 1;" vector-effect="non-scaling-stroke"  transform=" translate(11.59, -144.6)" d="M 43.6021 91.7549 L 173.461 91.7549 L 173.461 93.6867 L 44.3997 93.6867 L -16.0193 154.106 L -151.94 154.106 L -195.273 197.439 L -196.638 196.075 L -152.737 152.174 L -16.8169 152.174 L 43.6021 91.7549 Z" stroke-linecap="round" />
</g>
		<g transform="matrix(1 0 0 1 77.27 -109.78)"  >
<path style="stroke: none; stroke-width: 1; stroke-dasharray: none; stroke-linecap: butt; stroke-dashoffset: 0; stroke-linejoin: miter; stroke-miterlimit: 4; fill: rgb(0,0,0); fill-rule: nonzero; opacity: 1;" vector-effect="non-scaling-stroke"  transform=" translate(-173.27, -92.71)" d="M 173.266 89.0958 C 175.269 89.0958 176.882 90.7263 176.882 92.7113 C 176.882 94.7141 175.251 96.3269 173.266 96.3269 C 171.264 96.3269 169.651 94.6964 169.651 92.7113 C 169.651 90.7263 171.281 89.0958 173.266 89.0958 Z" stroke-linecap="round" />
</g>
		<g transform="matrix(1 0 0 1 -512.53 -123.95)"  >
<path style="stroke: none; stroke-width: 1; stroke-dasharray: none; stroke-linecap: butt; stroke-dashoffset: 0; stroke-linejoin: miter; stroke-miterlimit: 4; fill: rgb(0,0,0); fill-rule: nonzero; opacity: 1;" vector-effect="non-scaling-stroke"  transform=" translate(416.53, -78.56)" d="M -634.848 21.1445 L -605.002 50.9906 L -373.943 50.9907 L -343.724 81.1913 L -203.284 81.1913 L -150.415 134.042 L -22.8603 134.042 L 12.1788 99.0033 L 13.5435 100.368 L -22.0628 135.974 L -151.213 135.974 L -204.082 83.1232 L -344.522 83.1231 L -374.74 52.9048 L -605.8 52.9048 L -634.848 23.8562 L -679.759 68.7672 L -846.607 68.7672 L -846.607 66.8353 L -680.557 66.8353 L -634.848 21.1445 Z" stroke-linecap="round" />
</g>
		<g transform="matrix(1 0 0 1 -83.27 -102.69)"  >
<path style="stroke: none; stroke-width: 1; stroke-dasharray: none; stroke-linecap: butt; stroke-dashoffset: 0; stroke-linejoin: miter; stroke-miterlimit: 4; fill: rgb(0,0,0); fill-rule: nonzero; opacity: 1;" vector-effect="non-scaling-stroke"  transform=" translate(-12.74, -99.81)" d="M 10.176 97.2489 C 11.5939 95.831 13.8802 95.831 15.298 97.2489 C 16.7159 98.6667 16.7159 100.953 15.298 102.371 C 13.8802 103.789 11.5939 103.789 10.176 102.371 C 8.75813 100.971 8.75813 98.6667 10.176 97.2489 Z" stroke-linecap="round" />
</g>
		<g transform="matrix(1 0 0 1 -292.59 119.4)"  >
<path style="stroke: none; stroke-width: 1; stroke-dasharray: none; stroke-linecap: butt; stroke-dashoffset: 0; stroke-linejoin: miter; stroke-miterlimit: 4; fill: rgb(0,0,0); fill-rule: nonzero; opacity: 1;" vector-effect="non-scaling-stroke"  transform=" translate(196.59, -321.9)" d="M -523.12 293.003 L -277.652 293.003 L -221.788 348.885 L -39.8394 348.885 L -20.2019 329.248 L 176.102 329.248 L 176.102 331.18 L -19.4043 331.18 L -39.0418 350.799 L -222.585 350.799 L -278.449 294.917 L -522.323 294.917 L -567.925 340.537 L -569.29 339.173 L -523.12 293.003 Z" stroke-linecap="round" />
</g>
		<g transform="matrix(1 0 0 1 79.93 127.71)"  >
<path style="stroke: none; stroke-width: 1; stroke-dasharray: none; stroke-linecap: butt; stroke-dashoffset: 0; stroke-linejoin: miter; stroke-miterlimit: 4; fill: rgb(0,0,0); fill-rule: nonzero; opacity: 1;" vector-effect="non-scaling-stroke"  transform=" translate(-175.92, -330.2)" d="M 175.925 326.589 C 177.928 326.589 179.54 328.22 179.54 330.205 C 179.54 332.207 177.91 333.82 175.925 333.82 C 173.94 333.82 172.309 332.19 172.309 330.205 C 172.291 328.202 173.922 326.589 175.925 326.589 Z" stroke-linecap="round" />
</g>
		<g transform="matrix(1 0 0 1 -217.93 85.55)"  >
<path style="stroke: none; stroke-width: 1; stroke-dasharray: none; stroke-linecap: butt; stroke-dashoffset: 0; stroke-linejoin: miter; stroke-miterlimit: 4; fill: rgb(0,0,0); fill-rule: nonzero; opacity: 1;" vector-effect="non-scaling-stroke"  transform=" translate(121.93, -288.06)" d="M -202.185 271.664 L -9.40834 271.664 L 5.44385 286.498 L 4.07915 287.863 L -10.2059 273.596 L -201.388 273.596 L -232.244 304.452 L -249.312 304.452 L -249.312 302.52 L -233.042 302.52 L -202.185 271.664 Z" stroke-linecap="round" />
</g>
		<g transform="matrix(1 0 0 1 -91.37 84.55)"  >
<path style="stroke: none; stroke-width: 1; stroke-dasharray: none; stroke-linecap: butt; stroke-dashoffset: 0; stroke-linejoin: miter; stroke-miterlimit: 4; fill: rgb(0,0,0); fill-rule: nonzero; opacity: 1;" vector-effect="non-scaling-stroke"  transform=" translate(-4.63, -287.05)" d="M 4.62845 283.433 C 2.63163 283.433 1.01288 285.051 1.01288 287.048 C 1.01288 289.045 2.63163 290.664 4.62845 290.664 C 6.62527 290.664 8.24402 289.045 8.24402 287.048 C 8.24402 285.051 6.62527 283.433 4.62845 283.433 Z" stroke-linecap="round" />
</g>
		<g transform="matrix(1 0 0 1 -131.57 105.02)"  >
<path style="stroke: none; stroke-width: 1; stroke-dasharray: none; stroke-linecap: butt; stroke-dashoffset: 0; stroke-linejoin: miter; stroke-miterlimit: 4; fill: rgb(0,0,0); fill-rule: nonzero; opacity: 1;" vector-effect="non-scaling-stroke"  transform=" translate(35.57, -307.52)" d="M -181.804 297.151 L -17.8979 297.151 L -4.30402 310.745 L 130.039 310.745 L 130.039 312.659 L -5.10158 312.659 L -18.6954 299.083 L -181.006 299.083 L -199.811 317.887 L -201.175 316.522 L -181.804 297.151 Z" stroke-linecap="round" />
</g>
		<g transform="matrix(1 0 0 1 33.87 109.21)"  >
<path style="stroke: none; stroke-width: 1; stroke-dasharray: none; stroke-linecap: butt; stroke-dashoffset: 0; stroke-linejoin: miter; stroke-miterlimit: 4; fill: rgb(0,0,0); fill-rule: nonzero; opacity: 1;" vector-effect="non-scaling-stroke"  transform=" translate(-129.86, -311.7)" d="M 129.862 308.087 C 131.864 308.087 133.477 309.717 133.477 311.702 C 133.477 313.687 131.847 315.318 129.862 315.318 C 127.859 315.318 126.246 313.687 126.246 311.702 C 126.246 309.717 127.859 308.087 129.862 308.087 Z" stroke-linecap="round" />
</g>
		<g transform="matrix(1 0 0 1 -206.47 52.63)"  >
<path style="stroke: none; stroke-width: 1; stroke-dasharray: none; stroke-linecap: butt; stroke-dashoffset: 0; stroke-linejoin: miter; stroke-miterlimit: 4; fill: rgb(0,0,0); fill-rule: nonzero; opacity: 1;" vector-effect="non-scaling-stroke"  transform=" translate(110.47, -255.12)" d="M -224.836 228.615 L -4.87104 228.615 L 46.7748 280.278 L 45.4279 281.625 L -5.6686 230.546 L -224.038 230.546 L -266.344 272.852 L -267.709 271.487 L -224.836 228.615 Z" stroke-linecap="round" />
</g>
		<g transform="matrix(1 0 0 1 -50.04 78.31)"  >
<path style="stroke: none; stroke-width: 1; stroke-dasharray: none; stroke-linecap: butt; stroke-dashoffset: 0; stroke-linejoin: miter; stroke-miterlimit: 4; fill: rgb(0,0,0); fill-rule: nonzero; opacity: 1;" vector-effect="non-scaling-stroke"  transform=" translate(-45.97, -280.82)" d="M 48.5294 278.257 C 49.9472 279.675 49.9472 281.961 48.5294 283.379 C 47.1115 284.797 44.8252 284.797 43.4073 283.379 C 41.9894 281.961 41.9894 279.675 43.4073 278.257 C 44.8252 276.839 47.1115 276.839 48.5294 278.257 Z" stroke-linecap="round" />
</g>
		<g transform="matrix(1 0 0 1 -354.99 91.78)"  >
<path style="stroke: none; stroke-width: 1; stroke-dasharray: none; stroke-linecap: butt; stroke-dashoffset: 0; stroke-linejoin: miter; stroke-miterlimit: 4; fill: rgb(0,0,0); fill-rule: nonzero; opacity: 1;" vector-effect="non-scaling-stroke"  transform=" translate(258.99, -294.29)" d="M -219.182 245.043 L -12.2263 245.043 L 33.0746 290.344 L 165.149 290.344 L 165.149 292.276 L 32.2771 292.276 L -13.0238 246.975 L -218.385 246.975 L -254.062 282.652 L -541.198 282.652 L -602.078 343.532 L -683.127 343.532 L -683.127 341.6 L -602.875 341.6 L -541.996 280.72 L -254.859 280.72 L -219.182 245.043 Z" stroke-linecap="round" />
</g>
		<g transform="matrix(1 0 0 1 68.98 88.81)"  >
<path style="stroke: none; stroke-width: 1; stroke-dasharray: none; stroke-linecap: butt; stroke-dashoffset: 0; stroke-linejoin: miter; stroke-miterlimit: 4; fill: rgb(0,0,0); fill-rule: nonzero; opacity: 1;" vector-effect="non-scaling-stroke"  transform=" translate(-164.97, -291.3)" d="M 164.972 287.685 C 166.975 287.685 168.587 289.316 168.587 291.301 C 168.587 293.304 166.957 294.916 164.972 294.916 C 162.969 294.916 161.356 293.286 161.356 291.301 C 161.356 289.316 162.969 287.685 164.972 287.685 Z" stroke-linecap="round" />
</g>
		<g transform="matrix(1 0 0 1 -78.05 23.69)"  >
<path style="stroke: none; stroke-width: 1; stroke-dasharray: none; stroke-linecap: butt; stroke-dashoffset: 0; stroke-linejoin: miter; stroke-miterlimit: 4; fill: rgb(0,0,0); fill-rule: nonzero; opacity: 1;" vector-effect="non-scaling-stroke"  transform=" translate(-17.95, -226.19)" d="M -117.928 188.417 L -12.2263 188.417 L 61.3966 262.04 L 153.824 262.04 L 153.824 263.954 L 60.599 263.954 L -13.0238 190.331 L -117.928 190.331 L -117.928 188.417 Z" stroke-linecap="round" />
</g>
		<g transform="matrix(1 0 0 1 57.65 60.5)"  >
<path style="stroke: none; stroke-width: 1; stroke-dasharray: none; stroke-linecap: butt; stroke-dashoffset: 0; stroke-linejoin: miter; stroke-miterlimit: 4; fill: rgb(0,0,0); fill-rule: nonzero; opacity: 1;" vector-effect="non-scaling-stroke"  transform=" translate(-153.65, -263)" d="M 153.647 259.382 C 155.649 259.382 157.262 261.012 157.262 262.997 C 157.262 264.982 155.632 266.613 153.647 266.613 C 151.644 266.613 150.031 264.982 150.031 262.997 C 150.031 261.012 151.644 259.382 153.647 259.382 Z" stroke-linecap="round" />
</g>
		<g transform="matrix(1 0 0 1 -12.34 -63.48)"  >
<path style="stroke: none; stroke-width: 1; stroke-dasharray: none; stroke-linecap: butt; stroke-dashoffset: 0; stroke-linejoin: miter; stroke-miterlimit: 4; fill: rgb(0,0,0); fill-rule: nonzero; opacity: 1;" vector-effect="non-scaling-stroke"  transform=" translate(-83.66, -139.02)" d="M 39.0652 115.911 L 173.089 115.911 L 173.089 117.843 L 39.8627 117.843 L -4.41025 162.134 L -5.77495 160.769 L 39.0652 115.911 Z" stroke-linecap="round" />
</g>
		<g transform="matrix(1 0 0 1 76.92 -85.61)"  >
<path style="stroke: none; stroke-width: 1; stroke-dasharray: none; stroke-linecap: butt; stroke-dashoffset: 0; stroke-linejoin: miter; stroke-miterlimit: 4; fill: rgb(0,0,0); fill-rule: nonzero; opacity: 1;" vector-effect="non-scaling-stroke"  transform=" translate(-172.91, -116.89)" d="M 172.912 113.271 C 170.915 113.271 169.296 114.889 169.296 116.886 C 169.296 118.883 170.915 120.502 172.912 120.502 C 174.909 120.502 176.528 118.883 176.528 116.886 C 176.528 114.889 174.909 113.271 172.912 113.271 Z" stroke-linecap="round" />
</g>
		<g transform="matrix(1 0 0 1 2.09 24.48)"  >
<path style="stroke: none; stroke-width: 1; stroke-dasharray: none; stroke-linecap: butt; stroke-dashoffset: 0; stroke-linejoin: miter; stroke-miterlimit: 4; fill: rgb(0,0,0); fill-rule: nonzero; opacity: 1;" vector-effect="non-scaling-stroke"  transform=" translate(-98.09, -226.97)" d="M 42.025 209.809 L 74.4233 242.207 L 155.525 242.207 L 155.525 244.139 L 73.6258 244.139 L 40.6603 211.173 L 42.025 209.809 Z" stroke-linecap="round" />
</g>
		<g transform="matrix(1 0 0 1 59.35 40.67)"  >
<path style="stroke: none; stroke-width: 1; stroke-dasharray: none; stroke-linecap: butt; stroke-dashoffset: 0; stroke-linejoin: miter; stroke-miterlimit: 4; fill: rgb(0,0,0); fill-rule: nonzero; opacity: 1;" vector-effect="non-scaling-stroke"  transform=" translate(-155.35, -243.16)" d="M 155.348 239.549 C 157.351 239.549 158.964 241.179 158.964 243.164 C 158.964 245.167 157.333 246.78 155.348 246.78 C 153.345 246.78 151.732 245.149 151.732 243.164 C 151.715 241.179 153.345 239.549 155.348 239.549 Z" stroke-linecap="round" />
</g>
		<g transform="matrix(1 0 0 1 -54.52 8.13)"  >
<path style="stroke: none; stroke-width: 1; stroke-dasharray: none; stroke-linecap: butt; stroke-dashoffset: 0; stroke-linejoin: miter; stroke-miterlimit: 4; fill: rgb(0,0,0); fill-rule: nonzero; opacity: 1;" vector-effect="non-scaling-stroke"  transform=" translate(-41.48, -210.62)" d="M 41.4754 207.009 C 39.4786 207.009 37.8598 208.628 37.8598 210.625 C 37.8598 212.622 39.4786 214.24 41.4754 214.24 C 43.4722 214.24 45.0909 212.622 45.0909 210.625 C 45.0909 208.628 43.4722 207.009 41.4754 207.009 Z" stroke-linecap="round" />
</g>
		<g transform="matrix(1 0 0 1 -30.49 -43.71)"  >
<path style="stroke: none; stroke-width: 1; stroke-dasharray: none; stroke-linecap: butt; stroke-dashoffset: 0; stroke-linejoin: miter; stroke-miterlimit: 4; fill: rgb(0,0,0); fill-rule: nonzero; opacity: 1;" vector-effect="non-scaling-stroke"  transform=" translate(-65.52, -158.79)" d="M 59.4648 143.099 L 175.34 143.099 L 175.34 145.031 L 60.2623 145.031 L 30.8061 174.487 L -44.3055 174.487 L -44.3055 172.555 L 30.0085 172.555 L 59.4648 143.099 Z" stroke-linecap="round" />
</g>
		<g transform="matrix(1 0 0 1 79.17 -58.42)"  >
<path style="stroke: none; stroke-width: 1; stroke-dasharray: none; stroke-linecap: butt; stroke-dashoffset: 0; stroke-linejoin: miter; stroke-miterlimit: 4; fill: rgb(0,0,0); fill-rule: nonzero; opacity: 1;" vector-effect="non-scaling-stroke"  transform=" translate(-175.16, -144.07)" d="M 175.163 140.459 C 173.166 140.459 171.547 142.078 171.547 144.075 C 171.547 146.071 173.166 147.69 175.163 147.69 C 177.16 147.69 178.778 146.071 178.778 144.075 C 178.778 142.078 177.16 140.459 175.163 140.459 Z" stroke-linecap="round" />
</g>
		<g transform="matrix(1 0 0 1 25.04 -4.57)"  >
<path style="stroke: none; stroke-width: 1; stroke-dasharray: none; stroke-linecap: butt; stroke-dashoffset: 0; stroke-linejoin: miter; stroke-miterlimit: 4; fill: rgb(0,0,0); fill-rule: nonzero; opacity: 1;" vector-effect="non-scaling-stroke"  transform=" translate(-121.04, -197.93)" d="M 90.0375 186.149 L 174.223 186.149 L 174.223 188.081 L 90.835 188.081 L 69.2125 209.703 L 67.8478 208.339 L 90.0375 186.149 Z" stroke-linecap="round" />
</g>
		<g transform="matrix(1 0 0 1 78.03 -15.39)"  >
<path style="stroke: none; stroke-width: 1; stroke-dasharray: none; stroke-linecap: butt; stroke-dashoffset: 0; stroke-linejoin: miter; stroke-miterlimit: 4; fill: rgb(0,0,0); fill-rule: nonzero; opacity: 1;" vector-effect="non-scaling-stroke"  transform=" translate(-174.03, -187.11)" d="M 174.029 183.491 C 176.031 183.491 177.644 185.121 177.644 187.106 C 177.644 189.109 176.014 190.722 174.029 190.722 C 172.026 190.722 170.413 189.091 170.413 187.106 C 170.413 185.103 172.026 183.491 174.029 183.491 Z" stroke-linecap="round" />
</g>
		<g transform="matrix(1 0 0 1 -27.35 6.39)"  >
<path style="stroke: none; stroke-width: 1; stroke-dasharray: none; stroke-linecap: butt; stroke-dashoffset: 0; stroke-linejoin: miter; stroke-miterlimit: 4; fill: rgb(0,0,0); fill-rule: nonzero; opacity: 1;" vector-effect="non-scaling-stroke"  transform=" translate(-68.65, -208.9)" d="M 66.0935 206.336 C 64.6756 207.754 64.6756 210.04 66.0935 211.458 C 67.5113 212.876 69.7977 212.876 71.2155 211.458 C 72.6334 210.04 72.6334 207.754 71.2155 206.336 C 69.7977 204.918 67.5113 204.918 66.0935 206.336 Z" stroke-linecap="round" />
</g>
		<g transform="matrix(1 0 0 1 -10.09 -23.31)"  >
<path style="stroke: none; stroke-width: 1; stroke-dasharray: none; stroke-linecap: butt; stroke-dashoffset: 0; stroke-linejoin: miter; stroke-miterlimit: 4; fill: rgb(0,0,0); fill-rule: nonzero; opacity: 1;" vector-effect="non-scaling-stroke"  transform=" translate(-85.92, -179.18)" d="M 79.8463 163.498 L 160.629 163.498 L 160.629 165.412 L 80.6439 165.412 L 51.2054 194.869 L 11.2037 194.869 L 11.2037 192.937 L 50.4078 192.937 L 79.8463 163.498 Z" stroke-linecap="round" />
</g>
		<g transform="matrix(1 0 0 1 64.44 -38.04)"  >
<path style="stroke: none; stroke-width: 1; stroke-dasharray: none; stroke-linecap: butt; stroke-dashoffset: 0; stroke-linejoin: miter; stroke-miterlimit: 4; fill: rgb(0,0,0); fill-rule: nonzero; opacity: 1;" vector-effect="non-scaling-stroke"  transform=" translate(-160.43, -164.46)" d="M 160.435 160.84 C 162.437 160.84 164.05 162.471 164.05 164.456 C 164.05 166.458 162.42 168.071 160.435 168.071 C 158.432 168.071 156.819 166.441 156.819 164.456 C 156.819 162.453 158.432 160.84 160.435 160.84 Z" stroke-linecap="round" />
</g>
		<g transform="matrix(1 0 0 1 -84.61 -8.6)"  >
<path style="stroke: none; stroke-width: 1; stroke-dasharray: none; stroke-linecap: butt; stroke-dashoffset: 0; stroke-linejoin: miter; stroke-miterlimit: 4; fill: rgb(0,0,0); fill-rule: nonzero; opacity: 1;" vector-effect="non-scaling-stroke"  transform=" translate(-11.38, -193.89)" d="M 11.3811 190.278 C 9.37832 190.278 7.76549 191.909 7.76549 193.894 C 7.76549 195.897 9.39604 197.51 11.3811 197.51 C 13.3661 197.51 14.9966 195.879 14.9966 193.894 C 15.0143 191.909 13.3838 190.278 11.3811 190.278 Z" stroke-linecap="round" />
</g>
</g>
</g>
</svg>