<?xml version="1.0" encoding="UTF-8" standalone="no" ?>
<!DOCTYPE svg PUBLIC "-//W3C//DTD SVG 1.1//EN" "http://www.w3.org/Graphics/SVG/1.1/DTD/svg11.dtd">
<svg xmlns="http://www.w3.org/2000/svg" xmlns:xlink="http://www.w3.org/1999/xlink" version="1.1" width="1080" height="1080" viewBox="0 0 1080 1080" xml:space="preserve">
<desc>Created with Fabric.js 5.2.4</desc>
<defs>
</defs>
<g transform="matrix(1 0 0 1 540 540)" id="1da1bc5b-16b7-4816-8829-cc0db2f6b756"  >
<rect style="stroke: none; stroke-width: 1; stroke-dasharray: none; stroke-linecap: butt; stroke-dashoffset: 0; stroke-linejoin: miter; stroke-miterlimit: 4; fill: rgb(255,255,255); fill-rule: nonzero; opacity: 1; visibility: hidden;" vector-effect="non-scaling-stroke"  x="-540" y="-540" rx="0" ry="0" width="1080" height="1080" />
</g>
<g transform="matrix(1 0 0 1 540 540)" id="0f21a654-6023-4e3b-9ddf-d746512321b6"  >
</g>
<g transform="matrix(5.45 0 0 5.45 540 540)"  >
<g style=""   >
		<g transform="matrix(1 0 0 1 -9.35 182.6)" clip-path="url(#CLIPPATH_3)"  >
<clipPath id="CLIPPATH_3" >
	<rect transform="matrix(1 0 0 1 9.35 -182.6)" id="clip0_731_62" x="-99" y="-202.5" rx="0" ry="0" width="198" height="405" />
</clipPath>
<path style="stroke: none; stroke-width: 1; stroke-dasharray: none; stroke-linecap: butt; stroke-dashoffset: 0; stroke-linejoin: miter; stroke-miterlimit: 4; fill: rgb(0,0,0); fill-rule: nonzero; opacity: 1;" vector-effect="non-scaling-stroke"  transform=" translate(-89.65, -385.1)" d="M 143.088 368.133 L 3.45594 368.133 L 3.45594 370.065 L 142.286 370.065 L 174.477 402.073 L 175.849 400.708 L 143.088 368.133 Z" stroke-linecap="round" />
</g>
		<g transform="matrix(1 0 0 1 -95.37 166.59)" clip-path="url(#CLIPPATH_4)"  >
<clipPath id="CLIPPATH_4" >
	<rect transform="matrix(1 0 0 1 95.37 -166.59)" id="clip0_731_62" x="-99" y="-202.5" rx="0" ry="0" width="198" height="405" />
</clipPath>
<path style="stroke: none; stroke-width: 1; stroke-dasharray: none; stroke-linecap: butt; stroke-dashoffset: 0; stroke-linejoin: miter; stroke-miterlimit: 4; fill: rgb(0,0,0); fill-rule: nonzero; opacity: 1;" vector-effect="non-scaling-stroke"  transform=" translate(-3.63, -369.09)" d="M 3.63421 365.473 C 1.62114 365.473 9.79237e-7 367.104 6.32166e-7 369.089 C 2.85095e-7 371.074 1.63896 372.705 3.63421 372.705 C 5.64727 372.705 7.26841 371.074 7.26841 369.089 C 7.26841 367.104 5.64727 365.473 3.63421 365.473 Z" stroke-linecap="round" />
</g>
		<g transform="matrix(1 0 0 1 76.04 198.77)" clip-path="url(#CLIPPATH_5)"  >
<clipPath id="CLIPPATH_5" >
	<rect transform="matrix(1 0 0 1 -76.04 -198.77)" id="clip0_731_62" x="-99" y="-202.5" rx="0" ry="0" width="198" height="405" />
</clipPath>
<path style="stroke: none; stroke-width: 1; stroke-dasharray: none; stroke-linecap: butt; stroke-dashoffset: 0; stroke-linejoin: miter; stroke-miterlimit: 4; fill: rgb(0,0,0); fill-rule: nonzero; opacity: 1;" vector-effect="non-scaling-stroke"  transform=" translate(-175.04, -401.27)" d="M 177.613 398.705 C 179.038 400.123 179.038 402.409 177.613 403.827 C 176.188 405.245 173.889 405.245 172.464 403.827 C 171.039 402.409 171.039 400.123 172.464 398.705 C 173.872 397.287 176.188 397.287 177.613 398.705 Z" stroke-linecap="round" />
</g>
		<g transform="matrix(1 0 0 1 153.75 169.61)" clip-path="url(#CLIPPATH_6)"  >
<clipPath id="CLIPPATH_6" >
	<rect transform="matrix(1 0 0 1 -153.75 -169.61)" id="clip0_731_62" x="-99" y="-202.5" rx="0" ry="0" width="198" height="405" />
</clipPath>
<path style="stroke: none; stroke-width: 1; stroke-dasharray: none; stroke-linecap: butt; stroke-dashoffset: 0; stroke-linejoin: miter; stroke-miterlimit: 4; fill: rgb(0,0,0); fill-rule: nonzero; opacity: 1;" vector-effect="non-scaling-stroke"  transform=" translate(-252.75, -372.11)" d="M 179.519 350.001 L 123.385 350.001 L 123.385 351.933 L 178.717 351.933 L 221.223 394.221 L 382.108 394.221 L 382.108 392.289 L 222.025 392.289 L 179.519 350.001 Z" stroke-linecap="round" />
</g>
		<g transform="matrix(1 0 0 1 24.56 148.46)" clip-path="url(#CLIPPATH_7)"  >
<clipPath id="CLIPPATH_7" >
	<rect transform="matrix(1 0 0 1 -24.56 -148.46)" id="clip0_731_62" x="-99" y="-202.5" rx="0" ry="0" width="198" height="405" />
</clipPath>
<path style="stroke: none; stroke-width: 1; stroke-dasharray: none; stroke-linecap: butt; stroke-dashoffset: 0; stroke-linejoin: miter; stroke-miterlimit: 4; fill: rgb(0,0,0); fill-rule: nonzero; opacity: 1;" vector-effect="non-scaling-stroke"  transform=" translate(-123.56, -350.96)" d="M 123.563 347.343 C 121.55 347.343 119.929 348.974 119.929 350.959 C 119.929 352.961 121.568 354.574 123.563 354.574 C 125.576 354.574 127.197 352.944 127.197 350.959 C 127.215 348.974 125.576 347.343 123.563 347.343 Z" stroke-linecap="round" />
</g>
		<g transform="matrix(1 0 0 1 -2.13 -151.84)" clip-path="url(#CLIPPATH_8)"  >
<clipPath id="CLIPPATH_8" >
	<rect transform="matrix(1 0 0 1 2.13 151.84)" id="clip0_731_62" x="-99" y="-202.5" rx="0" ry="0" width="198" height="405" />
</clipPath>
<path style="stroke: none; stroke-width: 1; stroke-dasharray: none; stroke-linecap: butt; stroke-dashoffset: 0; stroke-linejoin: miter; stroke-miterlimit: 4; fill: rgb(0,0,0); fill-rule: nonzero; opacity: 1;" vector-effect="non-scaling-stroke"  transform=" translate(-96.87, -50.66)" d="M 176.758 28.7829 L 134.697 70.6101 L 15.6058 70.61 L 15.6058 72.5419 L 135.499 72.5419 L 178.13 30.1476 L 176.758 28.7829 Z" stroke-linecap="round" />
</g>
		<g transform="matrix(1 0 0 1 -83.22 -130.93)" clip-path="url(#CLIPPATH_9)"  >
<clipPath id="CLIPPATH_9" >
	<rect transform="matrix(1 0 0 1 83.22 130.93)" id="clip0_731_62" x="-99" y="-202.5" rx="0" ry="0" width="198" height="405" />
</clipPath>
<path style="stroke: none; stroke-width: 1; stroke-dasharray: none; stroke-linecap: butt; stroke-dashoffset: 0; stroke-linejoin: miter; stroke-miterlimit: 4; fill: rgb(0,0,0); fill-rule: nonzero; opacity: 1;" vector-effect="non-scaling-stroke"  transform=" translate(-15.78, -71.57)" d="M 15.7838 67.9523 C 13.7707 67.9523 12.1496 69.5829 12.1496 71.5679 C 12.1496 73.5706 13.7886 75.1835 15.7838 75.1835 C 17.7969 75.1835 19.418 73.5529 19.418 71.5679 C 19.4358 69.5829 17.7969 67.9523 15.7838 67.9523 Z" stroke-linecap="round" />
</g>
		<g transform="matrix(1 0 0 1 78.3 -172.91)" clip-path="url(#CLIPPATH_10)"  >
<clipPath id="CLIPPATH_10" >
	<rect transform="matrix(1 0 0 1 -78.3 172.91)" id="clip0_731_62" x="-99" y="-202.5" rx="0" ry="0" width="198" height="405" />
</clipPath>
<path style="stroke: none; stroke-width: 1; stroke-dasharray: none; stroke-linecap: butt; stroke-dashoffset: 0; stroke-linejoin: miter; stroke-miterlimit: 4; fill: rgb(0,0,0); fill-rule: nonzero; opacity: 1;" vector-effect="non-scaling-stroke"  transform=" translate(-177.3, -29.59)" d="M 174.727 27.0287 C 176.152 25.6108 178.45 25.6108 179.875 27.0287 C 181.301 28.4465 181.301 30.7328 179.875 32.1507 C 178.45 33.5686 176.152 33.5686 174.727 32.1507 C 173.302 30.7328 173.302 28.4465 174.727 27.0287 Z" stroke-linecap="round" />
</g>
		<g transform="matrix(1 0 0 1 171.87 -145.86)" clip-path="url(#CLIPPATH_11)"  >
<clipPath id="CLIPPATH_11" >
	<rect transform="matrix(1 0 0 1 -171.87 145.86)" id="clip0_731_62" x="-99" y="-202.5" rx="0" ry="0" width="198" height="405" />
</clipPath>
<path style="stroke: none; stroke-width: 1; stroke-dasharray: none; stroke-linecap: butt; stroke-dashoffset: 0; stroke-linejoin: miter; stroke-miterlimit: 4; fill: rgb(0,0,0); fill-rule: nonzero; opacity: 1;" vector-effect="non-scaling-stroke"  transform=" translate(-270.87, -56.64)" d="M 379.079 43.4406 L 187.838 43.4406 L 162.666 68.466 L 164.038 69.8307 L 188.64 45.3547 L 379.079 45.3548 L 379.079 43.4406 Z" stroke-linecap="round" />
</g>
		<g transform="matrix(1 0 0 1 64.48 -133.48)" clip-path="url(#CLIPPATH_12)"  >
<clipPath id="CLIPPATH_12" >
	<rect transform="matrix(1 0 0 1 -64.48 133.48)" id="clip0_731_62" x="-99" y="-202.5" rx="0" ry="0" width="198" height="405" />
</clipPath>
<path style="stroke: none; stroke-width: 1; stroke-dasharray: none; stroke-linecap: butt; stroke-dashoffset: 0; stroke-linejoin: miter; stroke-miterlimit: 4; fill: rgb(0,0,0); fill-rule: nonzero; opacity: 1;" vector-effect="non-scaling-stroke"  transform=" translate(-163.48, -69.02)" d="M 160.903 66.4627 C 159.477 67.8806 159.477 70.1669 160.903 71.5848 C 162.328 73.0027 164.626 73.0027 166.051 71.5848 C 167.476 70.1669 167.476 67.8806 166.051 66.4627 C 164.644 65.0449 162.328 65.0449 160.903 66.4627 Z" stroke-linecap="round" />
</g>
		<g transform="matrix(1 0 0 1 105.64 -57.9)" clip-path="url(#CLIPPATH_13)"  >
<clipPath id="CLIPPATH_13" >
	<rect transform="matrix(1 0 0 1 -105.64 57.9)" id="clip0_731_62" x="-99" y="-202.5" rx="0" ry="0" width="198" height="405" />
</clipPath>
<path style="stroke: none; stroke-width: 1; stroke-dasharray: none; stroke-linecap: butt; stroke-dashoffset: 0; stroke-linejoin: miter; stroke-miterlimit: 4; fill: rgb(0,0,0); fill-rule: nonzero; opacity: 1;" vector-effect="non-scaling-stroke"  transform=" translate(-204.64, -144.6)" d="M 149.163 91.7546 L 18.6344 91.7546 L 18.6344 93.6865 L 148.361 93.6865 L 209.092 154.105 L 345.713 154.106 L 389.27 197.439 L 390.642 196.074 L 346.514 152.174 L 209.893 152.174 L 149.163 91.7546 Z" stroke-linecap="round" />
</g>
		<g transform="matrix(1 0 0 1 -80.17 -109.79)" clip-path="url(#CLIPPATH_14)"  >
<clipPath id="CLIPPATH_14" >
	<rect transform="matrix(1 0 0 1 80.17 109.79)" id="clip0_731_62" x="-99" y="-202.5" rx="0" ry="0" width="198" height="405" />
</clipPath>
<path style="stroke: none; stroke-width: 1; stroke-dasharray: none; stroke-linecap: butt; stroke-dashoffset: 0; stroke-linejoin: miter; stroke-miterlimit: 4; fill: rgb(0,0,0); fill-rule: nonzero; opacity: 1;" vector-effect="non-scaling-stroke"  transform=" translate(-18.83, -92.71)" d="M 18.8303 89.0955 C 16.8173 89.0955 15.1961 90.7261 15.1961 92.7111 C 15.1961 94.7138 16.8351 96.3267 18.8303 96.3267 C 20.8434 96.3267 22.4645 94.6961 22.4645 92.7111 C 22.4645 90.7261 20.8256 89.0955 18.8303 89.0955 Z" stroke-linecap="round" />
</g>
		<g transform="matrix(1 0 0 1 512.67 -123.94)" clip-path="url(#CLIPPATH_15)"  >
<clipPath id="CLIPPATH_15" >
	<rect transform="matrix(1 0 0 1 -512.67 123.94)" id="clip0_731_62" x="-99" y="-202.5" rx="0" ry="0" width="198" height="405" />
</clipPath>
<path style="stroke: none; stroke-width: 1; stroke-dasharray: none; stroke-linecap: butt; stroke-dashoffset: 0; stroke-linejoin: miter; stroke-miterlimit: 4; fill: rgb(0,0,0); fill-rule: nonzero; opacity: 1;" vector-effect="non-scaling-stroke"  transform=" translate(-611.67, -78.56)" d="M 831.11 21.1445 L 801.11 50.9907 L 568.86 50.9906 L 538.486 81.1913 L 397.322 81.1912 L 344.181 134.042 L 215.968 134.042 L 180.748 99.0032 L 179.377 100.368 L 215.166 135.974 L 344.982 135.974 L 398.124 83.1231 L 539.287 83.1231 L 569.662 52.9048 L 801.912 52.9048 L 831.11 23.8562 L 876.253 68.7672 L 1043.96 68.7673 L 1043.96 66.8354 L 877.055 66.8354 L 831.11 21.1445 Z" stroke-linecap="round" />
</g>
		<g transform="matrix(1 0 0 1 81.19 -102.69)" clip-path="url(#CLIPPATH_16)"  >
<clipPath id="CLIPPATH_16" >
	<rect transform="matrix(1 0 0 1 -81.19 102.69)" id="clip0_731_62" x="-99" y="-202.5" rx="0" ry="0" width="198" height="405" />
</clipPath>
<path style="stroke: none; stroke-width: 1; stroke-dasharray: none; stroke-linecap: butt; stroke-dashoffset: 0; stroke-linejoin: miter; stroke-miterlimit: 4; fill: rgb(0,0,0); fill-rule: nonzero; opacity: 1;" vector-effect="non-scaling-stroke"  transform=" translate(-180.19, -99.81)" d="M 182.761 97.2488 C 181.336 95.8309 179.038 95.8309 177.613 97.2487 C 176.188 98.6666 176.188 100.953 177.613 102.371 C 179.038 103.789 181.336 103.789 182.761 102.371 C 184.187 100.971 184.187 98.6666 182.761 97.2488 Z" stroke-linecap="round" />
</g>
		<g transform="matrix(1 0 0 1 102.43 -128.36)" clip-path="url(#CLIPPATH_17)"  >
<clipPath id="CLIPPATH_17" >
	<rect transform="matrix(1 0 0 1 -102.43 128.36)" id="clip0_731_62" x="-99" y="-202.5" rx="0" ry="0" width="198" height="405" />
</clipPath>
<path style="stroke: none; stroke-width: 1; stroke-dasharray: none; stroke-linecap: butt; stroke-dashoffset: 0; stroke-linejoin: miter; stroke-miterlimit: 4; fill: rgb(0,0,0); fill-rule: nonzero; opacity: 1;" vector-effect="non-scaling-stroke"  transform=" translate(-201.43, -74.14)" d="M 201.431 70.5222 C 203.438 70.5222 205.065 72.1409 205.065 74.1377 C 205.065 76.1345 203.438 77.7533 201.431 77.7533 C 199.424 77.7533 197.797 76.1345 197.797 74.1377 C 197.797 72.1409 199.424 70.5222 201.431 70.5222 Z" stroke-linecap="round" />
</g>
		<g transform="matrix(1 0 0 1 291.6 119.4)" clip-path="url(#CLIPPATH_18)"  >
<clipPath id="CLIPPATH_18" >
	<rect transform="matrix(1 0 0 1 -291.6 -119.4)" id="clip0_731_62" x="-99" y="-202.5" rx="0" ry="0" width="198" height="405" />
</clipPath>
<path style="stroke: none; stroke-width: 1; stroke-dasharray: none; stroke-linecap: butt; stroke-dashoffset: 0; stroke-linejoin: miter; stroke-miterlimit: 4; fill: rgb(0,0,0); fill-rule: nonzero; opacity: 1;" vector-effect="non-scaling-stroke"  transform=" translate(-390.6, -321.9)" d="M 718.806 293.003 L 472.072 293.003 L 415.92 348.885 L 233.034 348.885 L 213.296 329.247 L 15.9798 329.247 L 15.9798 331.179 L 212.494 331.179 L 232.233 350.799 L 416.722 350.799 L 472.874 294.917 L 718.005 294.917 L 763.842 340.537 L 765.214 339.173 L 718.806 293.003 Z" stroke-linecap="round" />
</g>
		<g transform="matrix(1 0 0 1 -82.84 127.7)" clip-path="url(#CLIPPATH_19)"  >
<clipPath id="CLIPPATH_19" >
	<rect transform="matrix(1 0 0 1 82.84 -127.7)" id="clip0_731_62" x="-99" y="-202.5" rx="0" ry="0" width="198" height="405" />
</clipPath>
<path style="stroke: none; stroke-width: 1; stroke-dasharray: none; stroke-linecap: butt; stroke-dashoffset: 0; stroke-linejoin: miter; stroke-miterlimit: 4; fill: rgb(0,0,0); fill-rule: nonzero; opacity: 1;" vector-effect="non-scaling-stroke"  transform=" translate(-16.16, -330.2)" d="M 16.1581 326.589 C 14.1451 326.589 12.5239 328.219 12.5239 330.204 C 12.5239 332.207 14.1629 333.82 16.1581 333.82 C 18.1534 333.82 19.7923 332.19 19.7923 330.205 C 19.8101 328.202 18.1712 326.589 16.1581 326.589 Z" stroke-linecap="round" />
</g>
		<g transform="matrix(1 0 0 1 216.55 85.56)" clip-path="url(#CLIPPATH_20)"  >
<clipPath id="CLIPPATH_20" >
	<rect transform="matrix(1 0 0 1 -216.55 -85.56)" id="clip0_731_62" x="-99" y="-202.5" rx="0" ry="0" width="198" height="405" />
</clipPath>
<path style="stroke: none; stroke-width: 1; stroke-dasharray: none; stroke-linecap: butt; stroke-dashoffset: 0; stroke-linejoin: miter; stroke-miterlimit: 4; fill: rgb(0,0,0); fill-rule: nonzero; opacity: 1;" vector-effect="non-scaling-stroke"  transform=" translate(-315.55, -288.06)" d="M 396.217 271.664 L 202.447 271.664 L 187.518 286.498 L 188.889 287.863 L 203.248 273.596 L 395.416 273.596 L 426.431 304.452 L 443.587 304.452 L 443.587 302.52 L 427.233 302.52 L 396.217 271.664 Z" stroke-linecap="round" />
</g>
		<g transform="matrix(1 0 0 1 89.34 84.55)" clip-path="url(#CLIPPATH_21)"  >
<clipPath id="CLIPPATH_21" >
	<rect transform="matrix(1 0 0 1 -89.34 -84.55)" id="clip0_731_62" x="-99" y="-202.5" rx="0" ry="0" width="198" height="405" />
</clipPath>
<path style="stroke: none; stroke-width: 1; stroke-dasharray: none; stroke-linecap: butt; stroke-dashoffset: 0; stroke-linejoin: miter; stroke-miterlimit: 4; fill: rgb(0,0,0); fill-rule: nonzero; opacity: 1;" vector-effect="non-scaling-stroke"  transform=" translate(-188.34, -287.05)" d="M 188.337 283.433 C 190.345 283.433 191.972 285.051 191.972 287.048 C 191.972 289.045 190.345 290.664 188.337 290.664 C 186.33 290.664 184.703 289.045 184.703 287.048 C 184.703 285.051 186.33 283.433 188.337 283.433 Z" stroke-linecap="round" />
</g>
		<g transform="matrix(1 0 0 1 129.74 105.02)" clip-path="url(#CLIPPATH_22)"  >
<clipPath id="CLIPPATH_22" >
	<rect transform="matrix(1 0 0 1 -129.74 -105.02)" id="clip0_731_62" x="-99" y="-202.5" rx="0" ry="0" width="198" height="405" />
</clipPath>
<path style="stroke: none; stroke-width: 1; stroke-dasharray: none; stroke-linecap: butt; stroke-dashoffset: 0; stroke-linejoin: miter; stroke-miterlimit: 4; fill: rgb(0,0,0); fill-rule: nonzero; opacity: 1;" vector-effect="non-scaling-stroke"  transform=" translate(-228.74, -307.52)" d="M 375.73 297.151 L 210.98 297.151 L 197.316 310.744 L 62.2803 310.744 L 62.2803 312.659 L 198.118 312.659 L 211.782 299.082 L 374.929 299.083 L 393.83 317.887 L 395.202 316.522 L 375.73 297.151 Z" stroke-linecap="round" />
</g>
		<g transform="matrix(1 0 0 1 -36.54 109.2)" clip-path="url(#CLIPPATH_23)"  >
<clipPath id="CLIPPATH_23" >
	<rect transform="matrix(1 0 0 1 36.54 -109.2)" id="clip0_731_62" x="-99" y="-202.5" rx="0" ry="0" width="198" height="405" />
</clipPath>
<path style="stroke: none; stroke-width: 1; stroke-dasharray: none; stroke-linecap: butt; stroke-dashoffset: 0; stroke-linejoin: miter; stroke-miterlimit: 4; fill: rgb(0,0,0); fill-rule: nonzero; opacity: 1;" vector-effect="non-scaling-stroke"  transform=" translate(-62.46, -311.7)" d="M 62.4586 308.086 C 60.4455 308.086 58.8244 309.717 58.8244 311.702 C 58.8244 313.687 60.4634 315.318 62.4586 315.318 C 64.4717 315.318 66.0928 313.687 66.0928 311.702 C 66.0928 309.717 64.4717 308.086 62.4586 308.086 Z" stroke-linecap="round" />
</g>
		<g transform="matrix(1 0 0 1 205.03 52.62)" clip-path="url(#CLIPPATH_24)"  >
<clipPath id="CLIPPATH_24" >
	<rect transform="matrix(1 0 0 1 -205.03 -52.62)" id="clip0_731_62" x="-99" y="-202.5" rx="0" ry="0" width="198" height="405" />
</clipPath>
<path style="stroke: none; stroke-width: 1; stroke-dasharray: none; stroke-linecap: butt; stroke-dashoffset: 0; stroke-linejoin: miter; stroke-miterlimit: 4; fill: rgb(0,0,0); fill-rule: nonzero; opacity: 1;" vector-effect="non-scaling-stroke"  transform=" translate(-304.03, -255.12)" d="M 418.984 228.614 L 197.886 228.614 L 145.974 280.278 L 147.328 281.625 L 198.688 230.546 L 418.183 230.546 L 460.707 272.852 L 462.078 271.487 L 418.984 228.614 Z" stroke-linecap="round" />
</g>
		<g transform="matrix(1 0 0 1 47.78 78.32)" clip-path="url(#CLIPPATH_25)"  >
<clipPath id="CLIPPATH_25" >
	<rect transform="matrix(1 0 0 1 -47.78 -78.32)" id="clip0_731_62" x="-99" y="-202.5" rx="0" ry="0" width="198" height="405" />
</clipPath>
<path style="stroke: none; stroke-width: 1; stroke-dasharray: none; stroke-linecap: butt; stroke-dashoffset: 0; stroke-linejoin: miter; stroke-miterlimit: 4; fill: rgb(0,0,0); fill-rule: nonzero; opacity: 1;" vector-effect="non-scaling-stroke"  transform=" translate(-146.78, -280.82)" d="M 144.21 278.257 C 142.785 279.675 142.785 281.961 144.21 283.379 C 145.635 284.797 147.933 284.797 149.359 283.379 C 150.784 281.961 150.784 279.675 149.359 278.257 C 147.933 276.839 145.635 276.839 144.21 278.257 Z" stroke-linecap="round" />
</g>
		<g transform="matrix(1 0 0 1 354.31 91.79)" clip-path="url(#CLIPPATH_26)"  >
<clipPath id="CLIPPATH_26" >
	<rect transform="matrix(1 0 0 1 -354.31 -91.79)" id="clip0_731_62" x="-99" y="-202.5" rx="0" ry="0" width="198" height="405" />
</clipPath>
<path style="stroke: none; stroke-width: 1; stroke-dasharray: none; stroke-linecap: butt; stroke-dashoffset: 0; stroke-linejoin: miter; stroke-miterlimit: 4; fill: rgb(0,0,0); fill-rule: nonzero; opacity: 1;" vector-effect="non-scaling-stroke"  transform=" translate(-453.31, -294.29)" d="M 413.302 245.043 L 205.279 245.043 L 159.745 290.344 L 26.9892 290.344 L 26.9892 292.276 L 160.546 292.276 L 206.081 246.975 L 412.5 246.975 L 448.361 282.652 L 736.977 282.652 L 798.171 343.532 L 879.638 343.532 L 879.638 341.6 L 798.973 341.6 L 737.779 280.72 L 449.163 280.72 L 413.302 245.043 Z" stroke-linecap="round" />
</g>
		<g transform="matrix(1 0 0 1 -71.83 88.8)" clip-path="url(#CLIPPATH_27)"  >
<clipPath id="CLIPPATH_27" >
	<rect transform="matrix(1 0 0 1 71.83 -88.8)" id="clip0_731_62" x="-99" y="-202.5" rx="0" ry="0" width="198" height="405" />
</clipPath>
<path style="stroke: none; stroke-width: 1; stroke-dasharray: none; stroke-linecap: butt; stroke-dashoffset: 0; stroke-linejoin: miter; stroke-miterlimit: 4; fill: rgb(0,0,0); fill-rule: nonzero; opacity: 1;" vector-effect="non-scaling-stroke"  transform=" translate(-27.17, -291.3)" d="M 27.1675 287.685 C 25.1544 287.685 23.5333 289.316 23.5333 291.301 C 23.5333 293.303 25.1722 294.916 27.1675 294.916 C 29.1805 294.916 30.8017 293.286 30.8017 291.301 C 30.8017 289.316 29.1805 287.685 27.1675 287.685 Z" stroke-linecap="round" />
</g>
		<g transform="matrix(1 0 0 1 75.95 23.69)" clip-path="url(#CLIPPATH_28)"  >
<clipPath id="CLIPPATH_28" >
	<rect transform="matrix(1 0 0 1 -75.95 -23.69)" id="clip0_731_62" x="-99" y="-202.5" rx="0" ry="0" width="198" height="405" />
</clipPath>
<path style="stroke: none; stroke-width: 1; stroke-dasharray: none; stroke-linecap: butt; stroke-dashoffset: 0; stroke-linejoin: miter; stroke-miterlimit: 4; fill: rgb(0,0,0); fill-rule: nonzero; opacity: 1;" vector-effect="non-scaling-stroke"  transform=" translate(-174.95, -226.19)" d="M 311.526 188.417 L 205.279 188.417 L 131.277 262.04 L 38.3729 262.04 L 38.3729 263.954 L 132.078 263.954 L 206.081 190.331 L 311.526 190.331 L 311.526 188.417 Z" stroke-linecap="round" />
</g>
		<g transform="matrix(1 0 0 1 -60.45 60.5)" clip-path="url(#CLIPPATH_29)"  >
<clipPath id="CLIPPATH_29" >
	<rect transform="matrix(1 0 0 1 60.45 -60.5)" id="clip0_731_62" x="-99" y="-202.5" rx="0" ry="0" width="198" height="405" />
</clipPath>
<path style="stroke: none; stroke-width: 1; stroke-dasharray: none; stroke-linecap: butt; stroke-dashoffset: 0; stroke-linejoin: miter; stroke-miterlimit: 4; fill: rgb(0,0,0); fill-rule: nonzero; opacity: 1;" vector-effect="non-scaling-stroke"  transform=" translate(-38.55, -263)" d="M 38.551 259.381 C 36.5379 259.381 34.9168 261.012 34.9168 262.997 C 34.9168 264.982 36.5558 266.612 38.551 266.612 C 40.5641 266.612 42.1852 264.982 42.1852 262.997 C 42.1852 261.012 40.5641 259.381 38.551 259.381 Z" stroke-linecap="round" />
</g>
		<g transform="matrix(1 0 0 1 9.9 -63.48)" clip-path="url(#CLIPPATH_30)"  >
<clipPath id="CLIPPATH_30" >
	<rect transform="matrix(1 0 0 1 -9.9 63.48)" id="clip0_731_62" x="-99" y="-202.5" rx="0" ry="0" width="198" height="405" />
</clipPath>
<path style="stroke: none; stroke-width: 1; stroke-dasharray: none; stroke-linecap: butt; stroke-dashoffset: 0; stroke-linejoin: miter; stroke-miterlimit: 4; fill: rgb(0,0,0); fill-rule: nonzero; opacity: 1;" vector-effect="non-scaling-stroke"  transform=" translate(-108.9, -139.02)" d="M 153.723 115.911 L 19.0082 115.911 L 19.0082 117.843 L 152.922 117.843 L 197.423 162.134 L 198.794 160.769 L 153.723 115.911 Z" stroke-linecap="round" />
</g>
		<g transform="matrix(1 0 0 1 -79.81 -85.61)" clip-path="url(#CLIPPATH_31)"  >
<clipPath id="CLIPPATH_31" >
	<rect transform="matrix(1 0 0 1 79.81 85.61)" id="clip0_731_62" x="-99" y="-202.5" rx="0" ry="0" width="198" height="405" />
</clipPath>
<path style="stroke: none; stroke-width: 1; stroke-dasharray: none; stroke-linecap: butt; stroke-dashoffset: 0; stroke-linejoin: miter; stroke-miterlimit: 4; fill: rgb(0,0,0); fill-rule: nonzero; opacity: 1;" vector-effect="non-scaling-stroke"  transform=" translate(-19.19, -116.89)" d="M 19.1865 113.27 C 21.1936 113.27 22.8207 114.889 22.8207 116.886 C 22.8207 118.883 21.1936 120.501 19.1865 120.501 C 17.1793 120.501 15.5522 118.883 15.5522 116.886 C 15.5522 114.889 17.1793 113.27 19.1865 113.27 Z" stroke-linecap="round" />
</g>
		<g transform="matrix(1 0 0 1 98.98 -41.17)" clip-path="url(#CLIPPATH_32)"  >
<clipPath id="CLIPPATH_32" >
	<rect transform="matrix(1 0 0 1 -98.98 41.17)" id="clip0_731_62" x="-99" y="-202.5" rx="0" ry="0" width="198" height="405" />
</clipPath>
<path style="stroke: none; stroke-width: 1; stroke-dasharray: none; stroke-linecap: butt; stroke-dashoffset: 0; stroke-linejoin: miter; stroke-miterlimit: 4; fill: rgb(0,0,0); fill-rule: nonzero; opacity: 1;" vector-effect="non-scaling-stroke"  transform=" translate(-197.98, -161.33)" d="M 200.558 158.766 C 201.983 160.184 201.983 162.471 200.558 163.889 C 199.133 165.306 196.835 165.306 195.41 163.889 C 193.985 162.471 193.985 160.184 195.41 158.766 C 196.835 157.349 199.133 157.349 200.558 158.766 Z" stroke-linecap="round" />
</g>
		<g transform="matrix(1 0 0 1 -4.61 24.47)" clip-path="url(#CLIPPATH_33)"  >
<clipPath id="CLIPPATH_33" >
	<rect transform="matrix(1 0 0 1 4.61 -24.47)" id="clip0_731_62" x="-99" y="-202.5" rx="0" ry="0" width="198" height="405" />
</clipPath>
<path style="stroke: none; stroke-width: 1; stroke-dasharray: none; stroke-linecap: butt; stroke-dashoffset: 0; stroke-linejoin: miter; stroke-miterlimit: 4; fill: rgb(0,0,0); fill-rule: nonzero; opacity: 1;" vector-effect="non-scaling-stroke"  transform=" translate(-94.39, -226.97)" d="M 150.748 209.809 L 118.183 242.207 L 36.6626 242.207 L 36.6626 244.139 L 118.984 244.139 L 152.12 211.173 L 150.748 209.809 Z" stroke-linecap="round" />
</g>
		<g transform="matrix(1 0 0 1 -62.16 40.66)" clip-path="url(#CLIPPATH_34)"  >
<clipPath id="CLIPPATH_34" >
	<rect transform="matrix(1 0 0 1 62.16 -40.66)" id="clip0_731_62" x="-99" y="-202.5" rx="0" ry="0" width="198" height="405" />
</clipPath>
<path style="stroke: none; stroke-width: 1; stroke-dasharray: none; stroke-linecap: butt; stroke-dashoffset: 0; stroke-linejoin: miter; stroke-miterlimit: 4; fill: rgb(0,0,0); fill-rule: nonzero; opacity: 1;" vector-effect="non-scaling-stroke"  transform=" translate(-36.84, -243.16)" d="M 36.841 239.549 C 34.8279 239.549 33.2068 241.179 33.2068 243.164 C 33.2068 245.167 34.8457 246.78 36.841 246.78 C 38.854 246.78 40.4752 245.149 40.4752 243.164 C 40.493 241.179 38.854 239.549 36.841 239.549 Z" stroke-linecap="round" />
</g>
		<g transform="matrix(1 0 0 1 52.3 8.12)" clip-path="url(#CLIPPATH_35)"  >
<clipPath id="CLIPPATH_35" >
	<rect transform="matrix(1 0 0 1 -52.3 -8.12)" id="clip0_731_62" x="-99" y="-202.5" rx="0" ry="0" width="198" height="405" />
</clipPath>
<path style="stroke: none; stroke-width: 1; stroke-dasharray: none; stroke-linecap: butt; stroke-dashoffset: 0; stroke-linejoin: miter; stroke-miterlimit: 4; fill: rgb(0,0,0); fill-rule: nonzero; opacity: 1;" vector-effect="non-scaling-stroke"  transform=" translate(-151.3, -210.62)" d="M 151.301 207.009 C 153.308 207.009 154.935 208.628 154.935 210.625 C 154.935 212.622 153.308 214.24 151.301 214.24 C 149.293 214.24 147.666 212.622 147.666 210.625 C 147.666 208.628 149.293 207.009 151.301 207.009 Z" stroke-linecap="round" />
</g>
		<g transform="matrix(1 0 0 1 28.13 -43.71)" clip-path="url(#CLIPPATH_36)"  >
<clipPath id="CLIPPATH_36" >
	<rect transform="matrix(1 0 0 1 -28.13 43.71)" id="clip0_731_62" x="-99" y="-202.5" rx="0" ry="0" width="198" height="405" />
</clipPath>
<path style="stroke: none; stroke-width: 1; stroke-dasharray: none; stroke-linecap: butt; stroke-dashoffset: 0; stroke-linejoin: miter; stroke-miterlimit: 4; fill: rgb(0,0,0); fill-rule: nonzero; opacity: 1;" vector-effect="non-scaling-stroke"  transform=" translate(-127.13, -158.79)" d="M 133.218 143.099 L 16.7458 143.099 L 16.7458 145.03 L 132.417 145.03 L 162.025 174.487 L 237.524 174.487 L 237.524 172.555 L 162.827 172.555 L 133.218 143.099 Z" stroke-linecap="round" />
</g>
		<g transform="matrix(1 0 0 1 -82.08 -58.43)" clip-path="url(#CLIPPATH_37)"  >
<clipPath id="CLIPPATH_37" >
	<rect transform="matrix(1 0 0 1 82.08 58.43)" id="clip0_731_62" x="-99" y="-202.5" rx="0" ry="0" width="198" height="405" />
</clipPath>
<path style="stroke: none; stroke-width: 1; stroke-dasharray: none; stroke-linecap: butt; stroke-dashoffset: 0; stroke-linejoin: miter; stroke-miterlimit: 4; fill: rgb(0,0,0); fill-rule: nonzero; opacity: 1;" vector-effect="non-scaling-stroke"  transform=" translate(-16.92, -144.07)" d="M 16.924 140.459 C 18.9311 140.459 20.5582 142.077 20.5582 144.074 C 20.5582 146.071 18.9311 147.69 16.924 147.69 C 14.9168 147.69 13.2898 146.071 13.2898 144.074 C 13.2898 142.077 14.9168 140.459 16.924 140.459 Z" stroke-linecap="round" />
</g>
		<g transform="matrix(1 0 0 1 -27.67 -4.57)" clip-path="url(#CLIPPATH_38)"  >
<clipPath id="CLIPPATH_38" >
	<rect transform="matrix(1 0 0 1 27.67 4.57)" id="clip0_731_62" x="-99" y="-202.5" rx="0" ry="0" width="198" height="405" />
</clipPath>
<path style="stroke: none; stroke-width: 1; stroke-dasharray: none; stroke-linecap: butt; stroke-dashoffset: 0; stroke-linejoin: miter; stroke-miterlimit: 4; fill: rgb(0,0,0); fill-rule: nonzero; opacity: 1;" vector-effect="non-scaling-stroke"  transform=" translate(-71.33, -197.93)" d="M 102.488 186.149 L 17.8682 186.149 L 17.8682 188.081 L 101.687 188.081 L 123.42 209.703 L 124.792 208.338 L 102.488 186.149 Z" stroke-linecap="round" />
</g>
		<g transform="matrix(1 0 0 1 -80.94 -15.39)" clip-path="url(#CLIPPATH_39)"  >
<clipPath id="CLIPPATH_39" >
	<rect transform="matrix(1 0 0 1 80.94 15.39)" id="clip0_731_62" x="-99" y="-202.5" rx="0" ry="0" width="198" height="405" />
</clipPath>
<path style="stroke: none; stroke-width: 1; stroke-dasharray: none; stroke-linecap: butt; stroke-dashoffset: 0; stroke-linejoin: miter; stroke-miterlimit: 4; fill: rgb(0,0,0); fill-rule: nonzero; opacity: 1;" vector-effect="non-scaling-stroke"  transform=" translate(-18.06, -187.11)" d="M 18.0641 183.49 C 16.051 183.49 14.4299 185.121 14.4299 187.106 C 14.4299 189.109 16.0689 190.722 18.0641 190.722 C 20.0772 190.722 21.6983 189.091 21.6983 187.106 C 21.6983 185.103 20.0772 183.49 18.0641 183.49 Z" stroke-linecap="round" />
</g>
		<g transform="matrix(1 0 0 1 24.98 6.4)" clip-path="url(#CLIPPATH_40)"  >
<clipPath id="CLIPPATH_40" >
	<rect transform="matrix(1 0 0 1 -24.98 -6.4)" id="clip0_731_62" x="-99" y="-202.5" rx="0" ry="0" width="198" height="405" />
</clipPath>
<path style="stroke: none; stroke-width: 1; stroke-dasharray: none; stroke-linecap: butt; stroke-dashoffset: 0; stroke-linejoin: miter; stroke-miterlimit: 4; fill: rgb(0,0,0); fill-rule: nonzero; opacity: 1;" vector-effect="non-scaling-stroke"  transform=" translate(-123.98, -208.9)" d="M 126.556 206.336 C 127.981 207.753 127.981 210.04 126.556 211.458 C 125.13 212.875 122.832 212.875 121.407 211.458 C 119.982 210.04 119.982 207.753 121.407 206.336 C 122.832 204.918 125.13 204.918 126.556 206.336 Z" stroke-linecap="round" />
</g>
		<g transform="matrix(1 0 0 1 7.63 -23.32)" clip-path="url(#CLIPPATH_41)"  >
<clipPath id="CLIPPATH_41" >
	<rect transform="matrix(1 0 0 1 -7.63 23.32)" id="clip0_731_62" x="-99" y="-202.5" rx="0" ry="0" width="198" height="405" />
</clipPath>
<path style="stroke: none; stroke-width: 1; stroke-dasharray: none; stroke-linecap: butt; stroke-dashoffset: 0; stroke-linejoin: miter; stroke-miterlimit: 4; fill: rgb(0,0,0); fill-rule: nonzero; opacity: 1;" vector-effect="non-scaling-stroke"  transform=" translate(-106.63, -179.18)" d="M 112.732 163.498 L 31.5323 163.498 L 31.5323 165.412 L 111.93 165.412 L 141.52 194.868 L 181.728 194.868 L 181.728 192.937 L 142.322 192.937 L 112.732 163.498 Z" stroke-linecap="round" />
</g>
		<g transform="matrix(1 0 0 1 -67.27 -38.04)" clip-path="url(#CLIPPATH_42)"  >
<clipPath id="CLIPPATH_42" >
	<rect transform="matrix(1 0 0 1 67.27 38.04)" id="clip0_731_62" x="-99" y="-202.5" rx="0" ry="0" width="198" height="405" />
</clipPath>
<path style="stroke: none; stroke-width: 1; stroke-dasharray: none; stroke-linecap: butt; stroke-dashoffset: 0; stroke-linejoin: miter; stroke-miterlimit: 4; fill: rgb(0,0,0); fill-rule: nonzero; opacity: 1;" vector-effect="non-scaling-stroke"  transform=" translate(-31.73, -164.46)" d="M 31.7281 160.84 C 29.715 160.84 28.0939 162.47 28.0939 164.455 C 28.0939 166.458 29.7329 168.071 31.7281 168.071 C 33.7412 168.071 35.3623 166.44 35.3623 164.455 C 35.3623 162.453 33.7412 160.84 31.7281 160.84 Z" stroke-linecap="round" />
</g>
		<g transform="matrix(1 0 0 1 82.55 -8.61)" clip-path="url(#CLIPPATH_43)"  >
<clipPath id="CLIPPATH_43" >
	<rect transform="matrix(1 0 0 1 -82.55 8.61)" id="clip0_731_62" x="-99" y="-202.5" rx="0" ry="0" width="198" height="405" />
</clipPath>
<path style="stroke: none; stroke-width: 1; stroke-dasharray: none; stroke-linecap: butt; stroke-dashoffset: 0; stroke-linejoin: miter; stroke-miterlimit: 4; fill: rgb(0,0,0); fill-rule: nonzero; opacity: 1;" vector-effect="non-scaling-stroke"  transform=" translate(-181.55, -193.89)" d="M 181.55 190.278 C 183.563 190.278 185.184 191.909 185.184 193.894 C 185.184 195.896 183.545 197.509 181.55 197.509 C 179.555 197.509 177.916 195.879 177.916 193.894 C 177.898 191.909 179.537 190.278 181.55 190.278 Z" stroke-linecap="round" />
</g>
</g>
</g>
</svg>